<?xml version="1.0" encoding="UTF-8" standalone="no"?>
<!DOCTYPE svg PUBLIC "-//W3C//DTD SVG 1.1//EN"
 "http://www.w3.org/Graphics/SVG/1.1/DTD/svg11.dtd">
<!-- Generated by graphviz version 2.38.0 (20140413.2041)
 -->
<!-- Title: %3 Pages: 1 -->
<svg width="773pt" height="355pt"
 viewBox="0.00 0.00 772.89 355.00" xmlns="http://www.w3.org/2000/svg" xmlns:xlink="http://www.w3.org/1999/xlink">
<g id="graph0" class="graph" transform="scale(1 1) rotate(0) translate(4 351)">
<title>%3</title>
<polygon fill="#333333" stroke="none" points="-4,4 -4,-351 768.891,-351 768.891,4 -4,4"/>
<text text-anchor="middle" x="382.446" y="-9.2" font-family="Times,serif" font-size="16.00" fill="white">Network Map</text>
<!-- R6 -->
<g id="node1" class="node"><title>R6</title>
<polygon fill="#006699" stroke="#006699" points="347.391,-347 270.391,-347 270.391,-274 347.391,-274 347.391,-347"/>
<text text-anchor="middle" x="308.891" y="-306.8" font-family="Helvetica,sans-Serif" font-size="14.00" fill="white">R6</text>
</g>
<!-- SW2 -->
<g id="node2" class="node"><title>SW2</title>
<polygon fill="#006699" stroke="#006699" points="108.891,-223 16.891,-223 16.891,-150 108.891,-150 108.891,-223"/>
<text text-anchor="middle" x="62.891" y="-182.8" font-family="Helvetica,sans-Serif" font-size="14.00" fill="white">SW2</text>
</g>
<!-- SW1 -->
<g id="node3" class="node"><title>SW1</title>
<polygon fill="#006699" stroke="#006699" points="354.891,-223 262.891,-223 262.891,-150 354.891,-150 354.891,-223"/>
<text text-anchor="middle" x="308.891" y="-182.8" font-family="Helvetica,sans-Serif" font-size="14.00" fill="white">SW1</text>
</g>
<!-- SW1&#45;&#45;R6 -->
<g id="edge1" class="edge"><title>SW1&#45;&#45;R6</title>
<path fill="none" stroke="green" stroke-dasharray="5,2" d="M308.891,-223.115C308.891,-239.01 308.891,-257.704 308.891,-273.629"/>
<text text-anchor="middle" x="358.891" y="-244.8" font-family="Courier,monospace" font-size="14.00" fill="white"> &#160;&#160;&#160;&#160;&#160;&#160;&#160;&#160;&#160;&#160;&#160;</text>
<text text-anchor="middle" x="283.891" y="-262.429" font-family="Courier,monospace" font-size="14.00" fill="white">Eth0/1</text>
<text text-anchor="middle" x="283.891" y="-226.915" font-family="Courier,monospace" font-size="14.00" fill="white">Eth0/5</text>
</g>
<!-- R2 -->
<g id="node4" class="node"><title>R2</title>
<polygon fill="#006699" stroke="#006699" points="162.391,-99 85.391,-99 85.391,-26 162.391,-26 162.391,-99"/>
<text text-anchor="middle" x="123.891" y="-58.8" font-family="Helvetica,sans-Serif" font-size="14.00" fill="white">R2</text>
</g>
<!-- R2&#45;&#45;SW2 -->
<g id="edge4" class="edge"><title>R2&#45;&#45;SW2</title>
<path fill="none" stroke="green" stroke-dasharray="5,2" d="M85.3181,-89.3406C76.7047,-97.1362 68.7052,-106.464 63.891,-117 59.294,-127.061 57.9051,-138.852 58,-149.788"/>
<text text-anchor="middle" x="113.891" y="-120.8" font-family="Courier,monospace" font-size="14.00" fill="white"> &#160;&#160;&#160;&#160;&#160;&#160;&#160;&#160;&#160;&#160;&#160;</text>
<text text-anchor="middle" x="29" y="-138.588" font-family="Courier,monospace" font-size="14.00" fill="white">Eth0/11</text>
<text text-anchor="middle" x="60.3181" y="-78.1406" font-family="Courier,monospace" font-size="14.00" fill="white">Eth0/1</text>
</g>
<!-- R2&#45;&#45;SW1 -->
<g id="edge3" class="edge"><title>R2&#45;&#45;SW1</title>
<path fill="none" stroke="green" stroke-dasharray="5,2" d="M162.439,-99.1765C175.432,-110.35 190.339,-122.287 204.891,-132 223.046,-144.118 244.292,-155.492 262.832,-164.611"/>
<text text-anchor="middle" x="254.891" y="-120.8" font-family="Courier,monospace" font-size="14.00" fill="white"> &#160;&#160;&#160;&#160;&#160;&#160;&#160;&#160;&#160;&#160;&#160;</text>
<text text-anchor="middle" x="237.832" y="-153.411" font-family="Courier,monospace" font-size="14.00" fill="white">Eth0/2</text>
<text text-anchor="middle" x="137.439" y="-102.976" font-family="Courier,monospace" font-size="14.00" fill="white">Eth0/0</text>
</g>
<!-- R3 -->
<g id="node5" class="node"><title>R3</title>
<polygon fill="#006699" stroke="#006699" points="593.391,-99 516.391,-99 516.391,-26 593.391,-26 593.391,-99"/>
<text text-anchor="middle" x="554.891" y="-58.8" font-family="Helvetica,sans-Serif" font-size="14.00" fill="white">R3</text>
</g>
<!-- R3&#45;&#45;SW1 -->
<g id="edge5" class="edge"><title>R3&#45;&#45;SW1</title>
<path fill="none" stroke="green" stroke-dasharray="5,2" d="M516.183,-82.6967C472.479,-104.371 401.418,-139.613 354.911,-162.677"/>
<text text-anchor="middle" x="496.891" y="-120.8" font-family="Courier,monospace" font-size="14.00" fill="white"> &#160;&#160;&#160;&#160;&#160;&#160;&#160;&#160;&#160;&#160;&#160;</text>
<text text-anchor="middle" x="379.911" y="-151.477" font-family="Courier,monospace" font-size="14.00" fill="white">Eth0/3</text>
<text text-anchor="middle" x="491.183" y="-71.4967" font-family="Courier,monospace" font-size="14.00" fill="white">Eth0/0</text>
</g>
<!-- R4 -->
<g id="node6" class="node"><title>R4</title>
<polygon fill="#006699" stroke="#006699" points="593.391,-223 516.391,-223 516.391,-150 593.391,-150 593.391,-223"/>
<text text-anchor="middle" x="554.891" y="-182.8" font-family="Helvetica,sans-Serif" font-size="14.00" fill="white">R4</text>
</g>
<!-- R3&#45;&#45;R4 -->
<g id="edge6" class="edge"><title>R3&#45;&#45;R4</title>
<path fill="none" stroke="green" stroke-dasharray="5,2" d="M554.891,-99.1154C554.891,-115.01 554.891,-133.704 554.891,-149.629"/>
<text text-anchor="middle" x="604.891" y="-120.8" font-family="Courier,monospace" font-size="14.00" fill="white"> &#160;&#160;&#160;&#160;&#160;&#160;&#160;&#160;&#160;&#160;&#160;</text>
<text text-anchor="middle" x="529.891" y="-138.429" font-family="Courier,monospace" font-size="14.00" fill="white">Eth0/0</text>
<text text-anchor="middle" x="529.891" y="-102.915" font-family="Courier,monospace" font-size="14.00" fill="white">Eth0/1</text>
</g>
<!-- R5 -->
<g id="node8" class="node"><title>R5</title>
<polygon fill="#006699" stroke="#006699" points="716.391,-223 639.391,-223 639.391,-150 716.391,-150 716.391,-223"/>
<text text-anchor="middle" x="677.891" y="-182.8" font-family="Helvetica,sans-Serif" font-size="14.00" fill="white">R5</text>
</g>
<!-- R3&#45;&#45;R5 -->
<g id="edge7" class="edge"><title>R3&#45;&#45;R5</title>
<path fill="none" stroke="green" stroke-dasharray="5,2" d="M593.657,-75.8466C614.727,-84.3628 639.71,-97.6806 655.891,-117 663.67,-126.288 668.713,-138.373 671.976,-149.8"/>
<text text-anchor="middle" x="714.891" y="-120.8" font-family="Courier,monospace" font-size="14.00" fill="white"> &#160;&#160;&#160;&#160;&#160;&#160;&#160;&#160;&#160;&#160;&#160;</text>
<text text-anchor="middle" x="646.976" y="-138.6" font-family="Courier,monospace" font-size="14.00" fill="white">Eth0/0</text>
<text text-anchor="middle" x="618.657" y="-64.6466" font-family="Courier,monospace" font-size="14.00" fill="white">Eth0/2</text>
</g>
<!-- R1 -->
<g id="node7" class="node"><title>R1</title>
<polygon fill="#006699" stroke="#006699" points="347.391,-99 270.391,-99 270.391,-26 347.391,-26 347.391,-99"/>
<text text-anchor="middle" x="308.891" y="-58.8" font-family="Helvetica,sans-Serif" font-size="14.00" fill="white">R1</text>
</g>
<!-- R1&#45;&#45;SW1 -->
<g id="edge2" class="edge"><title>R1&#45;&#45;SW1</title>
<path fill="none" stroke="green" stroke-dasharray="5,2" d="M308.891,-99.1154C308.891,-115.01 308.891,-133.704 308.891,-149.629"/>
<text text-anchor="middle" x="358.891" y="-120.8" font-family="Courier,monospace" font-size="14.00" fill="white"> &#160;&#160;&#160;&#160;&#160;&#160;&#160;&#160;&#160;&#160;&#160;</text>
<text text-anchor="middle" x="283.891" y="-138.429" font-family="Courier,monospace" font-size="14.00" fill="white">Eth0/1</text>
<text text-anchor="middle" x="283.891" y="-102.915" font-family="Courier,monospace" font-size="14.00" fill="white">Eth0/0</text>
</g>
</g>
</svg>
